<?xml version="1.0" standalone="no"?>
<!DOCTYPE svg PUBLIC "-//W3C//DTD SVG 20010904//EN"
 "http://www.w3.org/TR/2001/REC-SVG-20010904/DTD/svg10.dtd">
<svg version="1.0" xmlns="http://www.w3.org/2000/svg"
 width="512.000000pt" height="512.000000pt" viewBox="0 0 512.000000 512.000000"
 preserveAspectRatio="xMidYMid meet">

<g transform="translate(0.000000,512.000000) scale(0.100000,-0.100000)"
fill="#000000" stroke="none">
<path d="M0 2560 l0 -2560 880 0 880 0 0 415 0 415 -465 0 -465 0 0 1730 0
1730 465 0 465 0 0 415 0 415 -880 0 -880 0 0 -2560z"/>
<path d="M3360 4705 l0 -415 465 0 465 0 0 -1730 0 -1730 -465 0 -465 0 0
-415 0 -415 880 0 880 0 0 2560 0 2560 -880 0 -880 0 0 -415z"/>
<path d="M1265 3847 c-3 -6 -4 -172 -3 -367 l3 -355 470 -2 c259 -2 476 -3
483 -3 9 0 12 -236 12 -1145 l0 -1145 330 0 330 0 0 1150 0 1150 483 0 482 0
-3 365 -2 365 -1291 0 c-1024 0 -1291 -3 -1294 -13z"/>
</g>
</svg>
